<svg width="146" height="32" viewBox="0 0 146 32" fill="none" xmlns="http://www.w3.org/2000/svg">
<path opacity="0.4" d="M3.92969 10.4557C3.92969 7.84774 3.92969 6.54374 4.42643 5.51684C4.86383 4.6126 5.56497 3.85935 6.43908 3.3546C7.43175 2.78138 8.74287 2.6768 11.3651 2.46763L19.6173 1.8094C22.6492 1.56756 24.1652 1.44664 25.3343 1.95731C26.3614 2.40601 27.2086 3.18102 27.7422 4.16005C28.3494 5.27431 28.3494 6.78204 28.3494 9.7975V22.496C28.3494 25.4197 28.3494 26.8816 27.7667 27.9777C27.2544 28.9413 26.4393 29.7131 25.4448 30.1761C24.3135 30.7029 22.8405 30.6357 19.8943 30.5014L11.6422 30.1253C8.93075 30.0017 7.57504 29.9399 6.54475 29.3774C5.63793 28.8823 4.90641 28.123 4.44917 27.2022C3.92969 26.1561 3.92969 24.8107 3.92969 22.1198V10.4557Z" fill="white"/>
<path d="M3.64893 9.37173C3.64893 6.81504 3.64893 5.5367 4.13153 4.52213C4.55661 3.62849 5.23879 2.87944 6.09225 2.36923C7.06121 1.78998 8.34399 1.65981 10.9096 1.39948L15.7935 0.90389C18.8791 0.590788 20.4219 0.434237 21.6148 0.933995C22.6625 1.37296 23.5302 2.14962 24.0774 3.13825C24.7004 4.26379 24.7004 5.80124 24.7004 8.87615V23.124C24.7004 26.1989 24.7004 27.7364 24.0774 28.8619C23.5302 29.8506 22.6625 30.6272 21.6148 31.0662C20.4219 31.5659 18.8791 31.4094 15.7935 31.0963L10.9096 30.6007C8.34399 30.3404 7.06121 30.2102 6.09225 29.6309C5.23879 29.1207 4.55661 28.3717 4.13153 27.478C3.64893 26.4635 3.64893 25.1851 3.64893 22.6284V9.37173Z" fill="white"/>
<path fill-rule="evenodd" clip-rule="evenodd" d="M24.7104 10.5735L3.65894 11.3183L3.63892 10.7622L24.6904 10.0173L24.7104 10.5735Z" fill="#FF831B"/>
<path fill-rule="evenodd" clip-rule="evenodd" d="M15.2976 15.6219C15.2925 15.2377 15.6025 14.9221 15.99 14.917L20.5814 14.8566C20.9689 14.8515 21.2873 15.1588 21.2924 15.543C21.2975 15.9271 20.9876 16.2427 20.6001 16.2478L16.0086 16.3082C15.6211 16.3133 15.3028 16.006 15.2976 15.6219Z" fill="#FF831B"/>
<g clip-path="url(#clip0_3776_11922)">
<path d="M68.8357 7.14772C69.5131 7.14584 70.1914 7.1214 70.8668 7.15901C71.4492 7.21918 71.9711 7.71377 71.9078 8.31272C71.9155 13.7456 71.9116 19.1785 71.9097 24.6123C71.2813 24.6105 70.6519 24.6208 70.0244 24.6095C69.6618 24.5738 69.2742 24.4412 69.0669 24.1281C68.8904 23.8451 68.8117 23.5085 68.829 23.1784C68.8357 17.8349 68.8213 12.4913 68.8357 7.14772Z" fill="white"/>
<path d="M108.957 7.15237C109.542 7.13262 110.128 7.14391 110.714 7.14109C111.137 7.13732 111.611 7.27366 111.857 7.63567C112.03 7.86133 112.061 8.15282 112.083 8.4255C112.097 13.8104 112.068 19.1963 112.097 24.5803C111.637 24.6508 111.169 24.5963 110.707 24.6142C110.25 24.6264 109.727 24.6254 109.367 24.3086C109.004 24.0105 109.007 23.5056 108.955 23.0834C108.955 17.7737 108.95 12.463 108.957 7.15237Z" fill="white"/>
<path d="M97.6956 8.33482C97.686 7.82331 98.0477 7.24222 98.6128 7.22248C99.3333 7.18957 100.055 7.21307 100.776 7.20837C100.775 13.0099 100.778 18.8113 100.774 24.6128C99.9828 24.5536 99.1357 24.7689 98.3892 24.4342C97.8826 24.1605 97.8702 23.5512 97.7742 23.0623C96.8724 24.1662 95.4562 24.8808 94.0027 24.8516C92.4005 24.893 90.8136 24.2029 89.715 23.0679C87.9372 21.225 87.5237 18.3318 88.5704 16.0366C89.3121 14.3338 90.8894 12.9422 92.7737 12.6102C94.1437 12.3028 95.6222 12.6488 96.7668 13.4302C97.0892 13.6521 97.3597 13.9379 97.6802 14.1636C97.7099 12.221 97.6783 10.2774 97.6956 8.33482ZM93.5633 15.5589C92.1002 15.9285 91.0496 17.3614 91.0947 18.8311C91.1676 19.7262 91.5869 20.6044 92.3141 21.1658C93.2236 21.9265 94.5745 22.1107 95.6683 21.6453C96.9261 21.1347 97.7925 19.8061 97.684 18.4691C97.5775 17.4009 96.9261 16.3883 95.9619 15.8692C95.248 15.4423 94.3644 15.4104 93.5633 15.5589Z" fill="white"/>
<path d="M134.249 7.35875C135.006 7.38319 135.775 7.28917 136.524 7.43961C137.038 7.57501 137.326 8.10344 137.317 8.59991C137.33 11.3662 137.313 14.1334 137.326 16.8997C137.728 16.7295 137.961 16.3355 138.262 16.0403C139.04 15.2373 139.781 14.3995 140.586 13.6219C141.165 13.0333 142.017 12.7305 142.847 12.7691C143.744 12.7794 144.643 12.7474 145.54 12.7869C144.252 14.1428 142.962 15.4977 141.667 16.848C141.226 17.3745 140.68 17.8108 140.267 18.3609C142.188 20.4314 144.07 22.5357 146 24.5968C145.172 24.6306 144.342 24.6024 143.514 24.6137C142.69 24.6344 141.839 24.373 141.244 23.7985C140.546 23.1346 139.934 22.3909 139.252 21.7101C138.91 21.3594 138.621 20.9532 138.237 20.6439C138.052 20.6185 137.954 20.7896 137.843 20.8977C137.676 21.082 137.495 21.2532 137.34 21.4468C137.267 22.2009 137.393 22.9682 137.271 23.7185C137.192 24.2526 136.656 24.5855 136.137 24.608C135.506 24.6193 134.873 24.6099 134.243 24.6099C134.244 18.8592 134.234 13.1095 134.249 7.35875Z" fill="white"/>
<path d="M104.391 7.52321C104.851 7.48654 105.364 7.41884 105.774 7.67742C106.407 8.02156 106.815 8.76437 106.672 9.4724C106.579 10.1043 106.085 10.6412 105.468 10.8339C104.421 11.2213 103.119 10.3741 103.162 9.25896C103.076 8.48417 103.662 7.76392 104.391 7.52321Z" fill="white"/>
<path d="M129.624 7.52534C130.083 7.48585 130.596 7.41909 131.007 7.67484C131.478 7.93248 131.836 8.39979 131.917 8.92634C132.048 9.65882 131.618 10.4468 130.923 10.7458C130.443 10.9865 129.841 10.9818 129.365 10.7364C128.761 10.4656 128.347 9.81208 128.398 9.16047C128.363 8.4233 128.931 7.75759 129.624 7.52534Z" fill="white"/>
<path d="M36.7314 8.18424C37.5642 8.14757 38.3989 8.17484 39.2336 8.16731C39.6903 8.14475 40.1374 8.27733 40.5528 8.45222C41.1736 8.74746 41.5996 9.30316 42.0112 9.82501C42.9879 11.0643 43.9799 12.2923 44.9499 13.5363C45.0833 13.5654 45.138 13.4187 45.2166 13.3445C46.2912 11.982 47.3753 10.6261 48.4537 9.26743C49.0102 8.55847 49.9217 8.1297 50.8351 8.16731C51.6371 8.17578 52.4411 8.14851 53.2432 8.1833C51.1613 10.7926 49.109 13.4234 47.0261 16.0318C49.2568 18.9127 51.5863 21.7223 53.8189 24.6023C53.0158 24.6305 52.2118 24.608 51.4078 24.6164C50.5088 24.623 49.6022 24.2328 49.0467 23.5314C47.7658 21.9564 46.4975 20.372 45.2243 18.7924C45.1514 18.6965 45.0564 18.6241 44.948 18.5724C43.6844 20.2263 42.3623 21.8379 41.0709 23.4712C40.5241 24.2149 39.5867 24.6287 38.6599 24.6174C37.8568 24.608 37.0538 24.6305 36.2517 24.6033C38.4766 21.7223 40.7879 18.9033 43.0291 16.0336C40.9097 13.4338 38.8383 10.7944 36.7314 8.18424Z" fill="white"/>
<path d="M118.812 13.2389C119.783 12.6202 121.009 12.3334 122.148 12.5957C123.347 12.7979 124.403 13.5463 125.079 14.5233C125.86 15.6478 126.235 17.0235 126.218 18.3775C126.219 20.4555 126.218 22.5335 126.218 24.6105C125.65 24.6162 125.083 24.6143 124.516 24.6152C124.11 24.6152 123.661 24.5005 123.416 24.1592C123.185 23.8856 123.197 23.5113 123.166 23.1775C123.157 21.5452 123.172 19.912 123.159 18.2797C123.173 17.314 122.701 16.2684 121.775 15.8406C120.478 15.2228 118.763 15.803 118.091 17.0442C117.582 17.9026 117.684 18.9303 117.677 19.8828C117.675 21.076 117.68 22.2692 117.675 23.4625C117.69 23.91 117.407 24.3896 116.951 24.5156C116.58 24.6547 116.179 24.6086 115.791 24.6143C115.393 24.6096 114.995 24.6321 114.6 24.5917C114.608 20.6548 114.602 16.7188 114.602 12.7819C115.193 12.764 115.784 12.7706 116.375 12.7734C116.805 12.7575 117.248 12.9831 117.447 13.3649C117.611 13.6573 117.562 14.0033 117.588 14.3239C117.976 13.9422 118.344 13.5304 118.812 13.2389Z" fill="white"/>
<path d="M59.985 12.5336C61.428 12.3831 62.9247 12.7461 64.1288 13.5425C66.2031 14.8739 67.3179 17.4963 66.797 19.8733C66.49 21.5329 65.4298 23.0345 63.9763 23.9306C61.9701 25.2 59.2175 25.1605 57.2286 23.8761C55.1351 22.5888 53.956 20.005 54.4318 17.6214C54.7475 15.7653 56.0063 14.1048 57.6997 13.2294C58.4048 12.8495 59.1916 12.6436 59.985 12.5336ZM59.8891 15.6571C58.8174 15.9223 57.8896 16.7422 57.5634 17.7831C57.1518 18.8917 57.5682 20.2005 58.4576 20.9716C58.9402 21.4285 59.5859 21.6824 60.2393 21.7952C61.2236 21.9137 62.256 21.5367 62.9343 20.8305C63.6616 20.1187 64.0165 19.0318 63.7719 18.0473C63.5397 17.0911 62.8365 16.2599 61.924 15.8546C61.2985 15.5471 60.5636 15.5283 59.8891 15.6571Z" fill="white"/>
<path d="M79.3681 12.55C81.6554 12.2463 84.053 13.3408 85.3156 15.2326C86.0774 16.3469 86.4545 17.7055 86.3835 19.0436C86.2808 20.4812 85.6908 21.8992 84.6632 22.9429C83.4841 24.1887 81.7437 24.924 80.0052 24.8526C77.2583 24.8751 74.6775 22.8742 74.0145 20.2687C73.5626 18.6881 73.8303 16.9383 74.6919 15.5345C75.6772 13.9087 77.4474 12.7682 79.3681 12.55ZM79.3643 15.6548C78.0451 15.9642 76.9907 17.1386 76.8813 18.4672C76.8122 19.3557 77.1739 20.2697 77.833 20.8846C78.5142 21.5625 79.5284 21.9086 80.4916 21.7948C81.1642 21.6791 81.8214 21.4018 82.3088 20.9241C83.1272 20.1766 83.5388 18.9674 83.1963 17.9049C82.9382 16.9844 82.2196 16.2068 81.3311 15.8278C80.7219 15.5457 80.0157 15.5345 79.3643 15.6548Z" fill="white"/>
<path d="M128.605 12.7808C129.289 12.7705 129.973 12.762 130.657 12.7827C131.249 12.826 131.742 13.3685 131.68 13.9562C131.69 17.5085 131.684 21.0609 131.683 24.6142C131.085 24.6142 130.487 24.6179 129.89 24.6151C129.474 24.6019 129.014 24.4496 128.8 24.0745C128.567 23.6908 128.605 23.2273 128.605 22.7994C128.605 19.4596 128.606 16.1197 128.605 12.7808Z" fill="white"/>
<path d="M103.369 12.7798C104.054 12.7713 104.74 12.7601 105.426 12.7836C106.017 12.8334 106.496 13.3703 106.444 13.9561C106.455 17.5084 106.448 21.0608 106.448 24.6131C105.819 24.6131 105.19 24.6225 104.562 24.6112C104.219 24.5736 103.846 24.4655 103.632 24.1815C103.4 23.9013 103.367 23.5224 103.368 23.1764C103.37 19.7105 103.369 16.2456 103.369 12.7798Z" fill="white"/>
</g>
<defs>
<clipPath id="clip0_3776_11922">
<rect width="109.748" height="17.7231" fill="white" transform="translate(36.2517 7.13843)"/>
</clipPath>
</defs>
</svg>
