<svg width="146" height="32" viewBox="0 0 146 32" fill="none" xmlns="http://www.w3.org/2000/svg">
<path opacity="0.4" d="M3.92969 10.4557C3.92969 7.84774 3.92969 6.54374 4.42643 5.51684C4.86383 4.6126 5.56497 3.85935 6.43908 3.3546C7.43175 2.78138 8.74287 2.6768 11.3651 2.46763L19.6173 1.8094C22.6492 1.56756 24.1652 1.44664 25.3343 1.95731C26.3614 2.40601 27.2086 3.18102 27.7422 4.16005C28.3494 5.27431 28.3494 6.78204 28.3494 9.7975V22.496C28.3494 25.4197 28.3494 26.8816 27.7667 27.9777C27.2544 28.9413 26.4393 29.7131 25.4448 30.1761C24.3135 30.7029 22.8405 30.6357 19.8943 30.5014L11.6422 30.1253C8.93075 30.0017 7.57504 29.9399 6.54475 29.3774C5.63793 28.8823 4.90641 28.123 4.44917 27.2022C3.92969 26.1561 3.92969 24.8107 3.92969 22.1198V10.4557Z" fill="#FF831B"/>
<path d="M3.64844 9.37173C3.64844 6.81504 3.64844 5.5367 4.13104 4.52213C4.55612 3.62849 5.2383 2.87944 6.09176 2.36923C7.06072 1.78998 8.3435 1.65981 10.9091 1.39948L15.793 0.90389C18.8786 0.590788 20.4214 0.434237 21.6143 0.933995C22.6621 1.37296 23.5298 2.14962 24.0769 3.13825C24.6999 4.26379 24.6999 5.80124 24.6999 8.87615V23.124C24.6999 26.1989 24.6999 27.7364 24.0769 28.8619C23.5298 29.8506 22.6621 30.6272 21.6143 31.0662C20.4214 31.5659 18.8786 31.4094 15.793 31.0963L10.9091 30.6007C8.3435 30.3404 7.06072 30.2102 6.09176 29.6309C5.2383 29.1207 4.55612 28.3717 4.13104 27.478C3.64844 26.4635 3.64844 25.1851 3.64844 22.6284V9.37173Z" fill="#FF831B"/>
<path fill-rule="evenodd" clip-rule="evenodd" d="M24.7102 10.5737L3.65869 11.3186L3.63867 10.7624L24.6901 10.0176L24.7102 10.5737Z" fill="white"/>
<path fill-rule="evenodd" clip-rule="evenodd" d="M15.2984 15.6219C15.2932 15.2377 15.6032 14.9221 15.9907 14.917L20.5822 14.8566C20.9697 14.8515 21.288 15.1588 21.2931 15.543C21.2983 15.9271 20.9883 16.2427 20.6008 16.2478L16.0093 16.3082C15.6218 16.3133 15.3035 16.006 15.2984 15.6219Z" fill="white"/>
<g clip-path="url(#clip0_7109_503)">
<path d="M68.8352 7.14821C69.5126 7.14633 70.1909 7.12188 70.8663 7.1595C71.4487 7.21967 71.9706 7.71426 71.9073 8.31321C71.915 13.7461 71.9111 19.179 71.9092 24.6128C71.2808 24.6109 70.6514 24.6213 70.024 24.61C69.6613 24.5743 69.2737 24.4417 69.0664 24.1286C68.8899 23.8456 68.8112 23.5089 68.8285 23.1789C68.8352 17.8353 68.8208 12.4918 68.8352 7.14821Z" fill="#FF831B"/>
<path d="M108.957 7.15261C109.542 7.13287 110.128 7.14415 110.714 7.14133C111.137 7.13757 111.611 7.27391 111.857 7.63591C112.03 7.86158 112.061 8.15306 112.083 8.42574C112.097 13.8107 112.068 19.1966 112.097 24.5806C111.637 24.6511 111.169 24.5965 110.707 24.6144C110.25 24.6266 109.727 24.6257 109.367 24.3088C109.004 24.0107 109.007 23.5058 108.955 23.0836C108.955 17.7739 108.95 12.4633 108.957 7.15261Z" fill="#FF831B"/>
<path d="M97.6963 8.33531C97.6867 7.8238 98.0484 7.24271 98.6135 7.22297C99.334 7.19006 100.056 7.21356 100.777 7.20886C100.776 13.0103 100.779 18.8118 100.775 24.6133C99.9836 24.5541 99.1364 24.7694 98.3899 24.4346C97.8834 24.161 97.8709 23.5517 97.775 23.0628C96.8731 24.1667 95.457 24.8813 94.0034 24.8521C92.4012 24.8935 90.8143 24.2033 89.7157 23.0684C87.9379 21.2255 87.5244 18.3323 88.5711 16.0371C89.3128 14.3342 90.8901 12.9426 92.7744 12.6107C94.1445 12.3033 95.623 12.6493 96.7676 13.4306C97.0899 13.6525 97.3605 13.9384 97.6809 14.1641C97.7107 12.2215 97.679 10.2779 97.6963 8.33531ZM93.564 15.5594C92.1009 15.9289 91.0503 17.3619 91.0954 18.8316C91.1683 19.7267 91.5876 20.6049 92.3148 21.1663C93.2244 21.9269 94.5753 22.1112 95.669 21.6458C96.9268 21.1352 97.7932 19.8066 97.6848 18.4696C97.5783 17.4014 96.9268 16.3887 95.9626 15.8697C95.2488 15.4428 94.3651 15.4109 93.564 15.5594Z" fill="#FF831B"/>
<path d="M134.249 7.35948C135.006 7.38393 135.775 7.2899 136.523 7.44034C137.038 7.57574 137.326 8.10417 137.317 8.60064C137.329 11.3669 137.313 14.1341 137.326 16.9004C137.728 16.7302 137.961 16.3363 138.262 16.041C139.04 15.238 139.781 14.4002 140.586 13.6226C141.165 13.034 142.017 12.7313 142.847 12.7698C143.744 12.7801 144.643 12.7482 145.54 12.7877C144.252 14.1435 142.962 15.4985 141.667 16.8487C141.226 17.3753 140.68 17.8115 140.267 18.3616C142.188 20.4321 144.069 22.5364 146 24.5975C145.172 24.6313 144.342 24.6031 143.514 24.6144C142.69 24.6351 141.839 24.3737 141.244 23.7992C140.545 23.1354 139.933 22.3916 139.252 21.7109C138.91 21.3601 138.621 20.9539 138.237 20.6446C138.052 20.6192 137.954 20.7903 137.843 20.8985C137.676 21.0828 137.494 21.2539 137.34 21.4476C137.267 22.2017 137.393 22.9689 137.271 23.7193C137.192 24.2534 136.656 24.5862 136.137 24.6088C135.505 24.6201 134.873 24.6107 134.243 24.6107C134.244 18.8599 134.233 13.1102 134.249 7.35948Z" fill="#FF831B"/>
<path d="M104.39 7.52346C104.85 7.48679 105.363 7.41909 105.773 7.67766C106.406 8.0218 106.814 8.76462 106.671 9.47264C106.578 10.1045 106.084 10.6414 105.467 10.8342C104.42 11.2215 103.118 10.3744 103.161 9.2592C103.075 8.48442 103.661 7.76417 104.39 7.52346Z" fill="#FF831B"/>
<path d="M129.623 7.52558C130.083 7.48609 130.595 7.41933 131.006 7.67509C131.477 7.93272 131.835 8.40004 131.916 8.92659C132.047 9.65906 131.617 10.447 130.922 10.746C130.442 10.9867 129.84 10.982 129.364 10.7366C128.76 10.4658 128.346 9.81233 128.397 9.16072C128.362 8.42354 128.93 7.75783 129.623 7.52558Z" fill="#FF831B"/>
<path d="M36.7317 8.18473C37.5645 8.14806 38.3992 8.17532 39.2339 8.1678C39.6906 8.14524 40.1376 8.27781 40.5531 8.4527C41.1738 8.74795 41.5998 9.30365 42.0114 9.8255C42.9881 11.0648 43.9802 12.2928 44.9501 13.5368C45.0835 13.5659 45.1382 13.4192 45.2169 13.3449C46.2914 11.9825 47.3756 10.6266 48.454 9.26792C49.0105 8.55896 49.9219 8.13019 50.8353 8.1678C51.6374 8.17626 52.4414 8.149 53.2435 8.18379C51.1615 10.793 49.1093 13.4239 47.0264 16.0322C49.257 18.9132 51.5865 21.7228 53.8191 24.6028C53.0161 24.631 52.2121 24.6085 51.4081 24.6169C50.5091 24.6235 49.6024 24.2333 49.0469 23.5319C47.7661 21.9569 46.4977 20.3725 45.2245 18.7929C45.1516 18.697 45.0566 18.6246 44.9482 18.5729C43.6847 20.2268 42.3626 21.8384 41.0712 23.4717C40.5243 24.2154 39.5869 24.6291 38.6601 24.6179C37.8571 24.6085 37.054 24.631 36.252 24.6038C38.4769 21.7228 40.7881 18.9038 43.0294 16.0341C40.91 13.4343 38.8386 10.7949 36.7317 8.18473Z" fill="#FF831B"/>
<path d="M118.812 13.2398C119.783 12.6211 121.009 12.3344 122.148 12.5967C123.347 12.7989 124.403 13.5473 125.079 14.5243C125.86 15.6488 126.235 17.0244 126.218 18.3784C126.219 20.4564 126.218 22.5344 126.218 24.6115C125.65 24.6171 125.083 24.6153 124.516 24.6162C124.11 24.6162 123.661 24.5015 123.416 24.1602C123.185 23.8866 123.197 23.5123 123.166 23.1785C123.157 21.5462 123.172 19.913 123.159 18.2806C123.173 17.315 122.701 16.2694 121.775 15.8416C120.478 15.2238 118.763 15.804 118.091 17.0451C117.582 17.9036 117.684 18.9313 117.677 19.8838C117.675 21.077 117.68 22.2702 117.675 23.4634C117.69 23.911 117.407 24.3905 116.951 24.5165C116.58 24.6557 116.179 24.6096 115.791 24.6153C115.393 24.6106 114.995 24.6331 114.6 24.5927C114.608 20.6558 114.602 16.7198 114.602 12.7829C115.193 12.765 115.784 12.7716 116.375 12.7744C116.805 12.7584 117.248 12.9841 117.447 13.3658C117.611 13.6583 117.562 14.0043 117.588 14.3249C117.976 13.9432 118.344 13.5313 118.812 13.2398Z" fill="#FF831B"/>
<path d="M59.9843 12.5338C61.4273 12.3834 62.924 12.7463 64.1281 13.5427C66.2024 14.8741 67.3172 17.4966 66.7962 19.8736C66.4892 21.5332 65.4291 23.0348 63.9755 23.9308C61.9694 25.2002 59.2167 25.1607 57.2278 23.8763C55.1344 22.5891 53.9552 20.0052 54.4311 17.6216C54.7468 15.7655 56.0055 14.105 57.6989 13.2296C58.4041 12.8497 59.1908 12.6438 59.9843 12.5338ZM59.8883 15.6574C58.8167 15.9225 57.8889 16.7425 57.5627 17.7833C57.1511 18.8919 57.5675 20.2008 58.4569 20.9718C58.9395 21.4288 59.5852 21.6827 60.2385 21.7955C61.2229 21.914 62.2553 21.5369 62.9336 20.8308C63.6608 20.119 64.0158 19.032 63.7712 18.0476C63.539 17.0913 62.8357 16.2601 61.9233 15.8549C61.2978 15.5474 60.5628 15.5286 59.8883 15.6574Z" fill="#FF831B"/>
<path d="M79.3674 12.5503C81.6547 12.2466 84.0523 13.341 85.3149 15.2329C86.0767 16.3471 86.4537 17.7058 86.3828 19.0438C86.2801 20.4815 85.69 21.8994 84.6625 22.9431C83.4834 24.189 81.7429 24.9243 80.0045 24.8528C77.2576 24.8754 74.6767 22.8745 74.0138 20.269C73.5619 18.6884 73.8296 16.9385 74.6911 15.5347C75.6765 13.909 77.4466 12.7684 79.3674 12.5503ZM79.3636 15.6551C78.0443 15.9644 76.9899 17.1388 76.8806 18.4674C76.8115 19.356 77.1732 20.2699 77.8323 20.8848C78.5135 21.5628 79.5276 21.9088 80.4909 21.795C81.1635 21.6794 81.8207 21.402 82.3081 20.9243C83.1264 20.1768 83.538 18.9676 83.1955 17.9051C82.9374 16.9846 82.2188 16.207 81.3304 15.8281C80.7212 15.546 80.015 15.5347 79.3636 15.6551Z" fill="#FF831B"/>
<path d="M128.604 12.7818C129.288 12.7715 129.972 12.763 130.656 12.7837C131.248 12.827 131.741 13.3695 131.68 13.9572C131.689 17.5095 131.684 21.0619 131.683 24.6151C131.084 24.6151 130.486 24.6189 129.889 24.6161C129.473 24.6029 129.013 24.4506 128.799 24.0754C128.566 23.6918 128.604 23.2282 128.604 22.8004C128.605 19.4606 128.606 16.1207 128.604 12.7818Z" fill="#FF831B"/>
<path d="M103.37 12.7808C104.055 12.7723 104.741 12.761 105.426 12.7845C106.017 12.8344 106.497 13.3713 106.445 13.9571C106.456 17.5094 106.449 21.0618 106.449 24.6141C105.82 24.6141 105.191 24.6235 104.563 24.6122C104.22 24.5746 103.847 24.4665 103.633 24.1825C103.401 23.9023 103.367 23.5234 103.369 23.1774C103.371 19.7115 103.37 16.2466 103.37 12.7808Z" fill="#FF831B"/>
</g>
<defs>
<clipPath id="clip0_7109_503">
<rect width="109.748" height="17.7231" fill="white" transform="translate(36.252 7.13867)"/>
</clipPath>
</defs>
</svg>
