<svg width="24" height="24" viewBox="0 0 24 24" fill="none" xmlns="http://www.w3.org/2000/svg">
<path d="M12.6706 6.60645C12.9799 6.6963 16.5152 10.3301 17.0573 10.8459C16.5579 11.4935 15.8449 12.1497 15.2595 12.7355L12.5215 15.4793C11.4652 16.5368 10.1434 17.9292 9.01749 18.8818C8.70163 19.1491 6.96798 19.6636 6.45122 19.8273C5.59512 20.1301 4.62515 20.5416 3.72782 20.6344C3.3835 20.67 2.92413 20.1792 3.01064 19.8497C3.43456 18.235 4.05811 16.0227 4.77921 14.5503C5.1558 13.7813 7.02158 12.3735 7.61324 11.6066C9.28984 9.9661 10.9764 8.17288 12.6706 6.60645Z" fill="#D6D6D6"/>
<path d="M16.8103 3C18.0786 3.1017 19.8659 5.19733 20.5399 6.23657C21.0654 7.04667 19.6138 8.4536 19.0888 8.92615C18.8002 9.18595 18.3851 9.81511 18.0057 9.63673C16.735 8.38403 15.0031 6.75534 13.8438 5.45827C14.2531 4.91617 15.5688 3.57928 16.1722 3.19609C16.3249 3.09914 16.624 3.03556 16.8103 3Z" fill="#D6D6D6"/>
</svg>
