<svg width="73" height="72" viewBox="0 0 73 72" fill="none" xmlns="http://www.w3.org/2000/svg">
<g clip-path="url(#clip0_3776_7159)">
<path d="M30.482 11.0771H17.4695C15.1288 11.0771 13.2246 12.9813 13.2246 15.322V28.3345C13.2246 30.6752 15.1288 32.5794 17.4695 32.5794H30.482C32.8227 32.5794 34.7269 30.6752 34.7269 28.3345V15.322C34.7269 12.9813 32.8227 11.0771 30.482 11.0771ZM30.482 39.421H17.4695C15.1288 39.421 13.2246 41.3252 13.2246 43.6659V56.6784C13.2246 59.0191 15.1288 60.9233 17.4695 60.9233H30.482C32.8227 60.9233 34.7269 59.0191 34.7269 56.6784V43.6659C34.7269 41.3252 32.8227 39.421 30.482 39.421ZM73.8219 20.8509H42.5459C41.4664 20.8509 40.5911 19.9757 40.5911 18.8962C40.5911 17.8166 41.4664 16.9414 42.5459 16.9414H73.8219C74.9014 16.9414 75.7766 17.8166 75.7766 18.8962C75.7766 19.9757 74.9014 20.8509 73.8219 20.8509ZM63.0708 28.1812H42.5459C41.4664 28.1812 40.5911 27.306 40.5911 26.2265C40.5911 25.147 41.4664 24.2717 42.5459 24.2717H63.0708C64.1503 24.2717 65.0255 25.147 65.0255 26.2265C65.0255 27.306 64.1503 28.1812 63.0708 28.1812ZM73.8219 48.7061H42.5459C41.4664 48.7061 40.5911 47.8309 40.5911 46.7514C40.5911 45.6718 41.4664 44.7966 42.5459 44.7966H73.8219C74.9014 44.7966 75.7766 45.6718 75.7766 46.7514C75.7766 47.8309 74.9014 48.7061 73.8219 48.7061ZM63.0708 56.5251H42.5459C41.4664 56.5251 40.5911 55.6499 40.5911 54.5704C40.5911 53.4908 41.4664 52.6156 42.5459 52.6156H63.0708C64.1503 52.6156 65.0255 53.4908 65.0255 54.5704C65.0255 55.6499 64.1503 56.5251 63.0708 56.5251Z" fill="#8F8F8F"/>
</g>
<defs>
<clipPath id="clip0_3776_7159">
<rect width="72" height="72" fill="white" transform="translate(0.5)"/>
</clipPath>
</defs>
</svg>
